<svg width="36" height="36" viewBox="0 0 36 36" fill="none" xmlns="http://www.w3.org/2000/svg">
<path d="M17.5944 4.27862C17.0238 5.41147 16.456 6.54716 15.8853 7.68001C15.8038 7.84024 15.7251 8.00047 15.6435 8.16071C15.756 8.07356 15.8684 7.98923 15.9809 7.90209C14.7243 8.07919 13.4706 8.25347 12.2141 8.43056C12.037 8.45586 11.8599 8.48116 11.6828 8.50646C11.4972 8.53176 11.337 8.72853 11.2892 8.9C11.2358 9.08835 11.2892 9.31042 11.4326 9.44816L14.1649 12.0456C14.297 12.1693 14.4264 12.2958 14.5585 12.4194C14.5107 12.2367 14.4629 12.054 14.4151 11.8713C14.1481 13.111 13.881 14.3506 13.6111 15.5875C13.5746 15.7618 13.5352 15.9361 13.4987 16.1132C13.3947 16.5939 13.881 16.9875 14.3251 16.7485C15.5058 16.116 16.6836 15.4807 17.8643 14.8482C18.0329 14.7582 18.1988 14.6683 18.3675 14.5783H17.7996C18.9803 15.2108 20.1581 15.8461 21.3388 16.4786C21.5074 16.5686 21.6733 16.6585 21.842 16.7485C22.2861 16.9874 22.7724 16.5939 22.6684 16.1132C22.4013 14.8735 22.1343 13.6339 21.8644 12.397C21.8279 12.2227 21.7885 12.0484 21.752 11.8713C21.7042 12.054 21.6564 12.2367 21.6086 12.4194L24.3409 9.82203C24.4731 9.69834 24.6024 9.57184 24.7345 9.44816C24.8779 9.31042 24.9313 9.09115 24.8779 8.9C24.8301 8.72853 24.6727 8.53456 24.4843 8.50646C23.2278 8.32936 21.974 8.15508 20.7175 7.97799C20.5404 7.95269 20.3633 7.92739 20.1862 7.90209C20.2987 7.98923 20.4111 8.07356 20.5235 8.16071C19.9529 7.02785 19.3851 5.89217 18.8144 4.75931C18.7329 4.59908 18.6542 4.43885 18.5727 4.27862C18.4405 4.01438 18.047 3.9188 17.8024 4.07622C17.5326 4.25051 17.4595 4.56253 17.6001 4.84643C18.1735 5.98772 18.7469 7.13183 19.3204 8.27312C19.3963 8.4221 19.4638 8.57952 19.5481 8.7257C19.7027 8.99275 19.9417 8.99556 20.2031 9.0321C20.9396 9.13611 21.6733 9.24012 22.4098 9.34132C23.0029 9.42565 23.5932 9.50717 24.1864 9.5915C24.1048 9.27948 24.0205 8.96465 23.939 8.65259C23.0142 9.52962 22.0893 10.4095 21.1673 11.2865C21.052 11.3962 20.9283 11.503 20.8159 11.6183C20.5685 11.8769 20.6753 12.1889 20.74 12.4868C20.8974 13.2149 21.0548 13.943 21.2123 14.671C21.3388 15.2501 21.4624 15.8292 21.5889 16.4111C21.8644 16.2003 22.1399 15.9866 22.4154 15.7758C21.2235 15.1377 20.0344 14.4968 18.8425 13.8587C18.6879 13.7743 18.5333 13.6872 18.3759 13.6085C18.0414 13.4398 17.794 13.6113 17.5185 13.7603C16.8214 14.1342 16.1242 14.508 15.4299 14.8819C14.8761 15.1799 14.3223 15.4778 13.7657 15.7758C14.0412 15.9866 14.3167 16.2003 14.5922 16.4111C14.862 15.1658 15.1291 13.9205 15.3989 12.6752C15.4355 12.5093 15.4748 12.3407 15.5085 12.1748C15.5816 11.7981 15.3764 11.6323 15.1487 11.4158C14.6118 10.907 14.0749 10.3954 13.538 9.88658C13.1051 9.47617 12.6722 9.06297 12.2393 8.65252C12.1577 8.96455 12.0734 9.27937 11.9919 9.59143C13.2568 9.41434 14.5219 9.23724 15.7868 9.05731C15.9527 9.03482 16.1241 9.02358 16.2872 8.98703C16.5655 8.92519 16.6582 8.66376 16.7707 8.44171C17.1052 7.77831 17.4369 7.11208 17.7714 6.44869C18.0413 5.91456 18.3083 5.38049 18.5782 4.84355C18.7103 4.58212 18.6569 4.2223 18.3758 4.07333C18.1087 3.94121 17.7377 3.99743 17.5943 4.27854L17.5944 4.27862Z" fill="currentColor" stroke="currentColor" stroke-width="0.3"/>
<path d="M21.7152 19.2254V20.4145V23.2733V26.7478V29.7416C21.7152 30.2251 21.6955 30.7142 21.7152 31.1977V31.2174C21.9035 31.029 22.0891 30.8435 22.2774 30.6551H19.4354H14.9124H13.8836C14.0719 30.8435 14.2574 31.029 14.4458 31.2174V30.3881V28.2966V25.5559V22.7336V20.4397V19.2703C14.4458 19.2422 14.4571 19.1551 14.4486 19.1438C14.4514 19.1467 14.4261 19.2591 14.4402 19.1973C14.4458 19.1776 14.4458 19.1607 14.4514 19.141C14.4571 19.1185 14.4908 19.0539 14.4824 19.0314C14.4824 19.037 14.4318 19.1298 14.4627 19.0792C14.4739 19.0567 14.4852 19.0342 14.4964 19.0145C14.5049 18.9977 14.5161 18.9836 14.5245 18.9667C14.5667 18.888 14.4992 18.9864 14.502 18.9892C14.4992 18.9724 14.6426 18.829 14.6566 18.8346C14.6679 18.8374 14.5554 18.8937 14.6173 18.8684C14.6342 18.8627 14.6482 18.8487 14.6651 18.8402C14.6819 18.8318 14.6988 18.8234 14.7129 18.8149C14.7241 18.8093 14.7354 18.8037 14.7466 18.7981C14.7747 18.784 14.7691 18.7868 14.7297 18.8037C14.7185 18.8093 14.7072 18.8121 14.696 18.8178C14.7129 18.8121 14.7325 18.8065 14.7494 18.8009C14.7663 18.7953 14.786 18.7896 14.8056 18.7868C14.8253 18.7812 14.8422 18.7812 14.8619 18.7756C14.9237 18.7615 14.8113 18.784 14.8085 18.784C14.8225 18.7925 14.8731 18.7812 14.89 18.7812H14.9349H15.1655H17.3946H20.127H21.0209H21.2345H21.2711H21.3104C21.4173 18.7784 21.2149 18.7559 21.3161 18.7784C21.3526 18.7868 21.3891 18.7981 21.4257 18.8065C21.51 18.829 21.3948 18.7925 21.3976 18.7896C21.406 18.7868 21.4566 18.8178 21.465 18.8234C21.4735 18.829 21.5606 18.874 21.5606 18.8824C21.5578 18.888 21.4763 18.8065 21.5213 18.8515C21.5353 18.8655 21.5494 18.8768 21.5634 18.888C21.5915 18.9133 21.614 18.9414 21.6393 18.9667C21.7068 19.037 21.5944 18.8852 21.6393 18.9724C21.6562 19.0061 21.6759 19.037 21.6927 19.0679C21.7377 19.1495 21.6618 18.9667 21.6984 19.0904C21.7096 19.127 21.7152 19.1635 21.7237 19.2029C21.7377 19.2675 21.7124 19.1495 21.7152 19.1495V19.2254C21.7209 19.5205 21.971 19.8016 22.2775 19.7876C22.5783 19.7735 22.8453 19.5402 22.8397 19.2254C22.8228 18.3624 22.1341 17.6709 21.2683 17.6568C21.1109 17.654 20.9535 17.6568 20.7961 17.6568H18.3055H15.6518H14.9575C14.3784 17.6568 13.8359 17.9238 13.5379 18.4326C13.2793 18.8712 13.3243 19.3687 13.3243 19.8522V21.8649V24.631V27.5376V29.9186V31.1582V31.2145C13.3243 31.5181 13.5829 31.7767 13.8865 31.7767H16.7285H21.2515H22.2804C22.584 31.7767 22.8426 31.5181 22.8426 31.2145V30.0254V27.1665V23.6921V20.6983C22.8426 20.2148 22.8567 19.7285 22.8426 19.2422V19.2225C22.8426 18.9273 22.584 18.6462 22.2804 18.6602C21.974 18.6743 21.7153 18.9076 21.7153 19.2253L21.7152 19.2254Z" fill="currentColor" stroke="currentColor" stroke-width="0.3"/>
<path d="M7.56979 22.7076H9.7034H13.1048H13.8834C13.6951 22.5192 13.5096 22.3337 13.3212 22.1454V25.2319V30.1063V31.2167L13.8834 30.6544H11.3984H7.47141H6.56627C6.75461 30.8428 6.94013 31.0283 7.1285 31.2167V28.102V23.6661V23.1798V23.1517C7.1285 23.1264 7.1285 23.0983 7.13131 23.073C7.11726 23.1573 7.11726 23.1686 7.12569 23.1067C7.13132 23.0814 7.13694 23.0561 7.14256 23.0337C7.14818 23.0084 7.15661 22.9859 7.16505 22.9606C7.13131 23.0365 7.12569 23.0477 7.15099 22.9915C7.16786 22.9606 7.18754 22.9268 7.2044 22.8959C7.25782 22.7947 7.13132 22.969 7.2044 22.8903C7.2297 22.865 7.255 22.8369 7.28031 22.8116C7.29717 22.7947 7.31685 22.7778 7.33653 22.7638C7.27187 22.8144 7.26344 22.8228 7.31404 22.7863C7.34215 22.7722 7.36745 22.7554 7.39556 22.7413C7.51363 22.671 7.31404 22.7554 7.41524 22.7329C7.45178 22.7244 7.48833 22.7132 7.52487 22.7048C7.58671 22.6935 7.57547 22.6963 7.49113 22.7104C7.51643 22.7076 7.54455 22.7076 7.56984 22.7076C7.865 22.7019 8.14611 22.4518 8.13208 22.1453C8.11802 21.8445 7.88471 21.5775 7.56984 21.5831C6.72088 21.6 6.0378 22.2634 6.00125 23.1123C5.99844 23.2107 6.00125 23.3091 6.00125 23.4075V25.1279V30.0163V31.2194C6.00125 31.523 6.25986 31.7817 6.56349 31.7817H9.04848H12.9755H13.8807C14.1842 31.7817 14.4429 31.5231 14.4429 31.2194V28.1329V23.2585V22.1481C14.4429 21.8445 14.1843 21.5859 13.8807 21.5859H11.747H8.34566H7.56701C7.27185 21.5859 6.99074 21.8445 7.00478 22.1481C7.02164 22.4489 7.25496 22.7075 7.56979 22.7075L7.56979 22.7076Z" fill="currentColor" stroke="currentColor" stroke-width="0.3"/>
<path d="M29.0354 23.1523V25.8734V30.2165V31.22C29.2237 31.0317 29.4093 30.8462 29.5976 30.6578H27.1126H23.1856H22.2805L22.8427 31.22V28.1335V23.2591V22.1487C22.6544 22.3371 22.4688 22.5226 22.2805 22.711H24.8076H28.2708C28.3777 22.711 28.4817 22.7081 28.5885 22.711H28.5913C28.6082 22.711 28.6588 22.7194 28.67 22.7138C28.5913 22.7025 28.5744 22.6997 28.6166 22.7053C28.6363 22.7081 28.6531 22.711 28.6728 22.7166C28.6981 22.7222 28.7206 22.7306 28.7459 22.7363C28.8612 22.7616 28.6475 22.6772 28.7515 22.7363C28.774 22.7475 28.7965 22.7587 28.8162 22.77C28.8387 22.7812 28.8584 22.7953 28.878 22.8093C28.8612 22.7953 28.8415 22.7812 28.8246 22.7644C28.8527 22.7587 28.9399 22.874 28.9567 22.8909C29.0383 22.9752 28.9174 22.8122 28.9455 22.8796C28.9567 22.9077 28.9792 22.933 28.9933 22.9583L29.0101 22.9921C29.0298 23.037 29.0298 23.037 29.0101 22.9921C28.9905 22.9471 28.9905 22.9499 29.0073 22.9949C29.013 23.0117 29.0186 23.0314 29.0214 23.0483C29.027 23.0736 29.0326 23.0989 29.0383 23.1242C29.0467 23.1663 29.0439 23.1495 29.0298 23.0708C29.0326 23.0989 29.0354 23.127 29.0354 23.1523C29.0411 23.4475 29.2913 23.7286 29.5977 23.7145C29.8985 23.7005 30.1655 23.4672 30.1599 23.1523C30.1459 22.472 29.7214 21.8845 29.0805 21.6624C28.8865 21.595 28.6813 21.5837 28.4761 21.5837H27.2055H23.27H22.2777C21.9741 21.5837 21.7155 21.8424 21.7155 22.146V25.2325V30.1069V31.2173C21.7155 31.5209 21.9741 31.7795 22.2777 31.7795H24.7627H28.6897H29.5949C29.8985 31.7795 30.1571 31.5209 30.1571 31.2173V28.4962V24.1531V23.1496C30.1571 22.8544 29.8985 22.5733 29.5949 22.5873C29.2913 22.6042 29.0354 22.8375 29.0354 23.1523L29.0354 23.1523Z" fill="currentColor" stroke="currentColor" stroke-width="0.3"/>
</svg>
