<svg width="36" height="36" viewBox="0 0 36 36" fill="none" xmlns="http://www.w3.org/2000/svg">
<path d="M24.866 8.82568H23.7856V7.45978C23.7856 6.99471 23.4084 6.61713 22.9429 6.61713C22.4779 6.61713 22.1007 6.99429 22.1007 7.45978V8.82568H14.6114V7.45978C14.6114 6.99471 14.2343 6.61713 13.7688 6.61713C13.3037 6.61713 12.9266 6.99429 12.9266 7.45978V8.82568H11.7779C8.92218 8.82568 6.59851 11.1494 6.59851 14.0051V24.8892C6.59851 27.7449 8.92218 30.0686 11.7779 30.0686H24.866C27.7217 30.0686 30.0454 27.7449 30.0454 24.8892V14.0051C30.0454 11.1494 27.7217 8.82568 24.866 8.82568ZM11.7779 10.5106H12.9266V12.1821C12.9266 12.6471 13.3037 13.0243 13.7688 13.0243C14.2343 13.0243 14.6114 12.6471 14.6114 12.1821V10.5106H22.1007V12.1821C22.1007 12.6471 22.4779 13.0243 22.9429 13.0243C23.4084 13.0243 23.7856 12.6471 23.7856 12.1821V10.5106H24.866C26.7928 10.5106 28.3605 12.0782 28.3605 14.0051V14.8151H8.28339V14.0051C8.28339 12.0778 9.85107 10.5106 11.7779 10.5106ZM24.866 28.3837H11.7779C9.85107 28.3837 8.28339 26.8161 8.28339 24.8892V16.5H28.3605V24.8892C28.3605 26.8161 26.7928 28.3837 24.866 28.3837Z" fill="currentColor"/>
</svg>
