<svg width="266" height="35" viewBox="0 0 266 35" fill="none" xmlns="http://www.w3.org/2000/svg">
<path d="M6.83897 6.23058C12.012 6.23058 15.1685 8.42445 15.1685 12.1102C15.1685 15.8836 12.2751 18.1653 7.45272 18.1653H4.38395V24.8347C4.38395 25.8 5.34842 26.3265 5.34842 26.9408C5.34842 27.3796 4.99771 27.6428 4.55931 27.6428H0.789111C0.350716 27.6428 0 27.3796 0 26.9408C0 26.3265 0.96447 25.8 0.96447 24.8347V8.95099C0.96447 7.98568 0.350716 7.37139 0.350716 6.84486C0.350716 6.5816 0.526075 6.23058 0.96447 6.14282L6.83897 6.23058ZM7.10201 16.6734C10.1708 16.6734 12.012 15.0061 12.012 12.1102C12.012 9.38976 9.99542 7.81017 6.48825 7.81017H4.38395V16.6734H7.10201Z" fill="white"/>
<path d="M30.7754 26.502C30.7754 27.2041 29.5479 27.9061 27.9697 27.9061C26.6545 27.9061 25.953 27.2041 25.953 26.0633V24.8347C25.6023 25.5367 24.1995 27.8184 20.9553 27.8184C18.2373 27.8184 16.3083 26.502 16.3083 23.6939C16.3083 20.0959 20.9553 17.7265 25.8654 18.0775V17.7265C25.8654 15.3571 25.0763 13.251 22.8843 13.251C19.6402 13.251 20.78 16.849 18.5003 16.849C17.8866 16.849 17.2728 16.3224 17.2728 15.6204C17.2728 14.2163 18.9387 11.9347 23.4104 11.9347C27.0052 11.9347 29.1095 13.7776 29.1095 17.3755V23.9571C29.1095 24.9224 29.1972 25.7122 29.8986 25.7122C30.4247 25.8 30.7754 26.151 30.7754 26.502ZM25.8654 21.9388V19.4816C22.3582 19.0429 19.6402 20.3592 19.6402 23.1673C19.6402 24.4837 20.4293 25.7122 22.1828 25.7122C24.1995 25.7122 25.8654 23.6939 25.8654 21.9388Z" fill="white"/>
<path d="M30.5123 13.4265C30.5123 13.1632 30.6877 12.9 31.0384 12.9L33.5811 12.3734V9.74079C33.5811 9.21426 33.7565 8.951 34.2825 8.68773C34.5456 8.51222 35.9484 7.81018 36.2992 7.81018C36.6499 7.81018 36.9129 8.07345 36.9129 8.51222V12.3734H40.157C40.4201 12.3734 40.6831 12.549 40.6831 12.9V13.4265C40.6831 13.6898 40.5077 13.953 40.157 13.953H36.9129V23.6939C36.9129 25.0102 37.439 25.9755 38.6665 25.9755C39.9817 25.9755 40.5954 25.0979 40.9461 25.0979C41.1215 25.0979 41.2092 25.1857 41.2092 25.3612C41.2092 26.4143 39.8063 27.7306 37.6143 27.7306C35.247 27.7306 33.5811 26.2388 33.5811 23.6939V13.953H31.0384C30.6877 13.953 30.5123 13.7775 30.5123 13.4265Z" fill="white"/>
<path d="M54.2733 20.4469H45.4177C45.5054 23.7816 47.259 25.9755 50.5031 25.9755C53.5719 25.9755 54.7117 24.4837 55.2378 24.4837C55.4131 24.4837 55.5008 24.5714 55.5008 24.7469C55.5008 25.7122 52.9581 27.8184 49.6263 27.8184C44.8916 27.8184 41.8229 24.7469 41.8229 20.0959C41.8229 15.4449 45.1547 11.9347 49.451 11.9347C53.4842 11.9347 56.1146 14.6551 56.1146 18.6041C56.0269 19.9204 55.5885 20.4469 54.2733 20.4469ZM52.7828 18.8673C52.7828 15.7959 51.5553 13.7776 49.2756 13.7776C46.9959 13.7776 45.5054 15.8837 45.33 18.8673H52.7828Z" fill="white"/>
<path d="M60.1478 12.3735C61.3753 12.3735 62.0767 12.9 62.1644 13.8653C62.7782 12.7245 64.0057 12.0225 65.4085 12.0225C66.8991 12.0225 68.1266 12.9878 68.1266 14.2163C68.1266 15.0939 67.4252 15.7082 66.5484 15.7082C65.0578 15.7082 65.1455 14.0408 64.0057 14.0408C62.9535 14.0408 62.2521 15.0061 62.2521 16.147V24.8347C62.2521 25.8 63.2166 26.3265 63.2166 26.9408C63.2166 27.3796 62.8658 27.6429 62.4274 27.6429H58.6572C58.2189 27.6429 57.8681 27.3796 57.8681 26.9408C57.8681 26.3265 58.8326 25.8 58.8326 24.8347V14.9184C58.8326 14.4796 58.5696 14.1286 58.1312 14.1286C57.6928 14.1286 57.3421 13.8653 57.3421 13.5143C57.2544 12.8123 58.4819 12.3735 60.1478 12.3735Z" fill="white"/>
<path d="M84.435 24.8347C84.435 25.8 85.3995 26.3266 85.3995 26.9408C85.3995 27.3796 85.0487 27.6429 84.6103 27.6429H80.8401C80.4018 27.6429 80.051 27.3796 80.051 26.9408C80.051 26.3266 81.0155 25.8 81.0155 24.8347V17.551C81.0155 15.1817 79.8757 13.7776 78.0344 13.7776C76.0178 13.7776 74.1765 15.7959 74.1765 18.1653V24.8347C74.1765 25.8 75.141 26.3266 75.141 26.9408C75.141 27.3796 74.7903 27.6429 74.3519 27.6429H70.5817C70.1433 27.6429 69.7926 27.3796 69.7926 26.9408C69.7926 26.3266 70.7571 25.8 70.7571 24.8347V14.9184C70.7571 14.4796 70.4063 14.1286 69.9679 14.1286C69.5295 14.1286 69.1788 13.8653 69.1788 13.5143C69.1788 12.9 70.4063 12.3735 71.9846 12.3735C73.2121 12.3735 74.0012 13.0755 74.0889 14.0408C74.878 13.1633 76.8069 12.1102 79.1742 12.1102C82.4184 12.1102 84.3473 14.3041 84.3473 17.9898V24.8347H84.435Z" fill="white"/>
<path d="M86.627 13.1632C86.627 12.5489 87.8545 12.0224 89.4327 12.0224C90.7479 12.0224 91.537 12.5489 91.537 13.6898V24.8347C91.537 25.8 92.5014 26.3265 92.5014 26.9408C92.5014 27.3796 92.1507 27.6428 91.7123 27.6428H87.9421C87.5037 27.6428 87.153 27.3796 87.153 26.9408C87.153 26.3265 88.1175 25.8 88.1175 24.8347V14.6551C88.1175 14.2163 87.7668 13.8653 87.3284 13.8653C86.9777 13.7775 86.627 13.5143 86.627 13.1632ZM89.2573 9.56527C90.4848 9.56527 91.4493 8.68772 91.4493 7.45915C91.4493 6.31833 90.4848 5.35303 89.2573 5.35303C88.0298 5.35303 87.0653 6.23058 87.0653 7.45915C87.0653 8.59997 88.0298 9.56527 89.2573 9.56527Z" fill="white"/>
<path d="M93.729 13.4265C93.729 13.1632 93.9044 12.9 94.2551 12.9L96.7978 12.3734V9.74079C96.7978 9.21426 96.9731 8.951 97.4992 8.68773C97.7622 8.51222 99.1651 7.81018 99.5158 7.81018C99.8665 7.81018 100.13 8.07345 100.13 8.51222V12.3734H103.374C103.637 12.3734 103.9 12.549 103.9 12.9V13.4265C103.9 13.6898 103.724 13.953 103.374 13.953H100.13V23.6939C100.13 25.0102 100.656 25.9755 101.883 25.9755C103.198 25.9755 103.812 25.0979 104.163 25.0979C104.338 25.0979 104.426 25.1857 104.426 25.3612C104.426 26.4143 103.023 27.7306 100.831 27.7306C98.4637 27.7306 96.7978 26.2388 96.7978 23.6939V13.953H94.2551C93.992 13.953 93.729 13.7775 93.729 13.4265Z" fill="white"/>
<path d="M120.734 12.3734C121.172 12.3734 121.523 12.6367 121.523 13.0755C121.523 13.6897 120.646 13.6897 120.383 14.3918L113.72 29.8367C112.405 32.8204 110.213 33.7857 108.459 33.7857C106.793 33.7857 105.741 33.1714 105.741 32.1183C105.741 31.3285 106.355 30.6265 107.319 30.6265C108.459 30.6265 108.81 31.7673 109.95 31.7673C111.089 31.7673 111.791 30.8897 112.405 29.6612L113.544 26.7653L107.232 14.4795C106.881 13.7775 106.092 13.6897 106.092 13.1632C106.092 12.7244 106.442 12.4612 106.881 12.4612H111.177C111.703 12.4612 111.879 12.8122 111.879 13.1632C111.879 13.6897 110.739 14.2163 111.265 15.2693L114.947 23.1673L118.191 15.2693C118.717 14.0408 117.578 13.7775 117.578 13.1632C117.578 12.8122 117.841 12.4612 118.279 12.4612L120.734 12.3734Z" fill="white"/>
<path d="M179.742 25.9755C180.531 25.9755 181.32 25.5367 181.759 24.8347L182.109 24.2204C182.46 23.6061 182.986 23.2551 183.425 23.2551C184.126 23.2551 184.214 23.7816 184.126 24.1326L183.688 26.853C183.6 27.2918 183.162 27.5551 182.723 27.5551H169.308C168.87 27.5551 168.519 27.2918 168.519 26.853C168.519 26.2387 169.308 25.7122 169.308 24.7469V8.95099C169.308 7.98568 168.344 7.45915 168.344 6.84486C168.344 6.40609 168.695 6.14282 169.133 6.14282H172.903C173.342 6.14282 173.692 6.40609 173.692 6.84486C173.692 7.45915 172.728 7.98568 172.728 8.95099V24.8347C172.728 25.3612 172.903 25.9755 173.78 25.9755H179.742Z" fill="white"/>
<path d="M198.067 20.4469H189.124C189.211 23.7816 190.965 25.9755 194.209 25.9755C197.278 25.9755 198.418 24.4837 198.944 24.4837C199.119 24.4837 199.207 24.5714 199.207 24.7469C199.207 25.7122 196.664 27.8184 193.332 27.8184C188.598 27.8184 185.529 24.7469 185.529 20.0959C185.529 15.4449 188.861 11.9347 193.157 11.9347C197.19 11.9347 199.821 14.6551 199.821 18.6041C199.821 19.9204 199.295 20.4469 198.067 20.4469ZM196.577 18.8673C196.577 15.7959 195.349 13.7776 193.069 13.7776C190.79 13.7776 189.299 15.8837 189.124 18.8673H196.577Z" fill="white"/>
<path d="M215.515 26.502C215.515 27.2041 214.288 27.9061 212.709 27.9061C211.394 27.9061 210.693 27.2041 210.693 26.0633V24.8347C210.342 25.5367 208.939 27.8184 205.695 27.8184C202.977 27.8184 201.136 26.502 201.136 23.6939C201.136 20.0959 205.783 17.7265 210.693 18.0775V17.7265C210.693 15.3571 209.904 13.251 207.712 13.251C204.468 13.251 205.607 16.849 203.328 16.849C202.714 16.849 202.1 16.3224 202.1 15.6204C202.1 14.2163 203.766 11.9347 208.238 11.9347C211.833 11.9347 213.937 13.7776 213.937 17.3755V23.9571C213.937 24.9224 214.025 25.7122 214.726 25.7122C215.164 25.8 215.515 26.151 215.515 26.502ZM210.605 21.9388V19.4816C207.098 19.0429 204.38 20.3592 204.38 23.1673C204.38 24.4837 205.169 25.7122 206.923 25.7122C208.939 25.7122 210.605 23.6939 210.605 21.9388Z" fill="white"/>
<path d="M232.35 28.8713C232.35 31.5918 229.982 33.6979 223.757 33.6979C220.688 33.6979 216.48 32.7326 216.48 29.3979C216.48 27.8183 217.356 27.1162 218.321 26.5897C217.97 26.0632 217.707 25.4489 217.707 24.7469C217.707 23.5183 218.496 22.6407 219.285 22.202C218.233 21.1489 217.619 19.6571 217.619 18.3407C217.619 14.7428 220.425 12.1101 224.108 12.1101C225.248 12.1101 226.3 12.3734 227.176 12.8122C227.44 12.0224 228.316 11.4081 229.456 11.4081C230.771 11.4081 231.297 12.0224 231.297 12.4611C231.297 12.8122 231.034 13.0754 230.421 13.0754C229.807 13.0754 229.193 13.602 229.018 14.304C229.807 15.2693 230.333 16.5856 230.333 17.9897C230.333 22.1142 227.001 24.2203 224.108 24.2203C222.705 24.2203 221.39 23.9571 220.338 23.255C219.899 23.606 219.548 24.1326 219.636 24.7469C219.724 25.8877 220.601 26.1509 221.039 26.1509C222.354 26.1509 224.985 24.9224 227.352 24.9224C230.07 24.8346 232.35 26.0632 232.35 28.8713ZM229.193 29.1346C229.193 28.1693 228.755 27.0285 227.089 27.0285C225.335 27.0285 223.669 27.906 221.565 27.906C221.214 27.906 220.513 27.8183 220.074 27.6428C219.548 27.9938 219.285 28.6081 219.285 29.2224C219.285 30.7142 220.776 32.206 223.582 32.206C226.65 32.206 229.193 31.2407 229.193 29.1346ZM221.127 18.0775C221.127 21.5877 222.529 22.8162 224.02 22.8162C225.774 22.8162 226.738 20.6224 226.738 18.1652C226.738 14.655 225.335 13.5142 223.845 13.5142C222.266 13.4264 221.127 15.0938 221.127 18.0775Z" fill="white"/>
<path d="M249.447 26.502C249.447 27.1163 248.483 27.9061 246.641 27.9061C245.151 27.9061 244.625 27.0286 244.625 25.9755V25.5367C243.923 26.502 242.082 27.9061 239.539 27.9061C236.295 27.9061 234.366 25.7122 234.366 22.0265V14.7429C234.366 13.7776 233.577 13.251 233.577 12.6367C233.577 12.198 233.928 11.9347 234.366 11.9347H237.084C237.435 11.9347 237.698 12.198 237.698 12.549V22.2898C237.698 24.6592 238.838 26.0633 240.679 26.0633C242.696 26.0633 244.537 24.0449 244.537 21.6755V14.7429C244.537 13.7776 243.748 13.251 243.748 12.6367C243.748 12.198 244.099 11.9347 244.537 11.9347H247.255C247.606 11.9347 247.869 12.198 247.869 12.549V24.3959C247.869 25.1857 248.132 25.7122 248.658 25.7122C249.184 25.8 249.447 26.151 249.447 26.502Z" fill="white"/>
<path d="M263.213 20.4469H254.357C254.445 23.7816 256.198 25.9755 259.442 25.9755C262.511 25.9755 263.651 24.4837 264.177 24.4837C264.352 24.4837 264.44 24.5714 264.44 24.7469C264.44 25.7122 261.897 27.8184 258.566 27.8184C253.831 27.8184 250.762 24.7469 250.762 20.0959C250.762 15.4449 254.094 11.9347 258.39 11.9347C262.424 11.9347 265.054 14.6551 265.054 18.6041C264.966 19.9204 264.44 20.4469 263.213 20.4469ZM261.722 18.8673C261.722 15.7959 260.495 13.7776 258.215 13.7776C255.935 13.7776 254.445 15.8837 254.269 18.8673H261.722Z" fill="white"/>
<path d="M157.998 11.4082C160.277 8.51225 161.417 4.91429 161.417 0.965306V0.70204C161.417 0.35102 161.154 0 160.716 0H160.54C151.422 0 143.881 7.19592 143.355 16.3224H140.9V0.789796C140.9 0.438775 140.637 0.0877554 140.199 0.0877554H130.379C130.028 0.0877554 129.677 0.35102 129.677 0.789796V8.95102C129.677 12.9 132.045 16.1469 135.727 17.2878C132.045 18.4286 129.677 21.6755 129.677 25.6245V33.7857C129.677 34.1367 129.94 34.4878 130.379 34.4878H140.199C140.55 34.4878 140.9 34.2245 140.9 33.7857V18.0775H143.355C143.794 27.2041 151.334 34.4 160.54 34.4H160.803C161.154 34.4 161.505 34.1367 161.505 33.698V33.4347C161.505 29.4857 160.277 25.8878 158.085 22.9918C155.806 20.0959 152.737 18.0776 148.967 17.1122C152.649 16.3224 155.806 14.3041 157.998 11.4082ZM159.664 1.84286C159.225 9.65306 153 15.7959 145.197 16.3224C145.635 8.51224 151.86 2.28163 159.664 1.84286ZM145.197 18.1653C153 18.6041 159.138 24.8347 159.664 32.6449C151.86 32.1184 145.635 25.8878 145.197 18.1653ZM132.483 21.9388C132.571 21.851 132.571 21.7633 132.658 21.6755C132.658 21.6755 132.658 21.5878 132.746 21.5878C132.834 21.5 132.834 21.4122 132.921 21.4122C132.921 21.4122 132.921 21.3245 133.009 21.3245C133.097 21.2367 133.097 21.149 133.185 21.0612C134.587 19.3061 136.779 18.1653 139.234 18.1653V32.4694H131.606V25.449C131.606 24.2204 131.869 22.9918 132.483 21.9388ZM133.097 13.3388C133.009 13.251 133.009 13.1633 132.921 13.0755C132.921 13.0755 132.921 12.9878 132.834 12.9878C132.746 12.9 132.746 12.8122 132.658 12.8122C132.658 12.8122 132.658 12.7245 132.571 12.7245C132.483 12.6367 132.483 12.549 132.395 12.4612C132.395 12.4612 132.395 12.4612 132.395 12.3735C131.782 11.3204 131.519 10.0918 131.519 8.86326V1.84286H139.059V16.2347C136.692 16.3224 134.5 15.1816 133.097 13.3388Z" fill="white"/>
</svg>
