<svg width="36" height="36" viewBox="0 0 36 36" fill="none" xmlns="http://www.w3.org/2000/svg">
<path d="M28.9288 9.52617H26.0716V7.63154C26.0716 7.4639 26.0114 7.30332 25.9042 7.18481C25.7971 7.06652 25.6517 7 25.5002 7H9.49995C9.18446 7 8.92857 7.28262 8.92857 7.63153V9.52616H6.07139C5.75569 9.52616 5.5 9.80899 5.5 10.1579V15.2107V15.2105C5.5 16.718 6.0419 18.164 7.0063 19.2299C7.9707 20.2958 9.27893 20.8947 10.6429 20.8947H12.22C12.8988 21.7157 13.6665 22.4413 14.5058 23.0548L13.66 25.9475H11.5571C11.3291 25.9466 11.1227 26.0955 11.0314 26.3263L9.54557 30.1158H9.54577C9.46844 30.3114 9.48578 30.537 9.59181 30.7154C9.69783 30.8936 9.8782 31.0009 10.0713 31H24.9287C25.1218 31.0009 25.3022 30.8936 25.4082 30.7154C25.5142 30.537 25.5316 30.3114 25.4542 30.1158L23.9684 26.3263H23.9686C23.8774 26.0955 23.6709 25.9466 23.4429 25.9475H21.34L20.4715 23.0548H20.4713C21.3108 22.4413 22.0783 21.7157 22.7571 20.8947H24.3571C25.7211 20.8947 27.0293 20.2958 27.9937 19.2299C28.9581 18.164 29.5 16.718 29.5 15.2105V10.1577V10.1579C29.5 9.99028 29.4398 9.8297 29.3326 9.71118C29.2256 9.59267 29.0801 9.52615 28.9286 9.52615L28.9288 9.52617ZM6.64273 15.2104V10.7894H8.92853V11.6358C8.93431 14.5082 9.75803 17.3053 11.2829 19.6315H10.6429C9.58206 19.6315 8.56464 19.1656 7.81443 18.3365C7.06427 17.5073 6.64273 16.3828 6.64273 15.2102V15.2104ZM24.0603 29.7368H10.9402L11.9345 27.2104H23.0663L24.0603 29.7368ZM19.4887 22.2463H19.4889C19.2563 22.3979 19.1515 22.7087 19.2374 22.9916L20.1402 25.9475H14.8606L15.7861 22.9916C15.8722 22.7087 15.7674 22.3979 15.5348 22.2463C13.876 21.1456 12.5019 19.5911 11.545 17.7324C10.588 15.8739 10.0808 13.7742 10.0718 11.6359V8.26323H24.9291V11.6359C24.9226 13.772 24.4187 15.8701 23.4658 17.7284C22.5132 19.5867 21.1436 21.1428 19.489 22.2466L19.4887 22.2463ZM28.3577 15.2104C28.3577 16.383 27.9362 17.5074 27.186 18.3366C26.4359 19.1657 25.4184 19.6317 24.3575 19.6317H23.7176C25.2424 17.3055 26.0661 14.5082 26.0719 11.6359V10.7896H28.3577V15.2104Z" fill="currentColor" stroke="currentColor" stroke-width="0.3"/>
</svg>
