<svg width="36" height="36" viewBox="0 0 36 36" fill="none" xmlns="http://www.w3.org/2000/svg">
<path d="M12.4304 25.9866L17.5 22.9513L22.5696 26.0189L21.2134 20.2712L25.6695 16.3963L19.7926 15.8797L17.5 10.4549L15.2074 15.8474L9.33053 16.364L13.7866 20.2389L12.4304 25.9866ZM17.5 25.2116L11.494 28.8281C11.3218 28.9358 11.1388 28.9842 10.945 28.9734C10.7513 28.9627 10.5791 28.9035 10.4284 28.7958C10.2777 28.6882 10.1647 28.5483 10.0893 28.3761C10.014 28.2039 9.99786 28.0101 10.0409 27.7948L11.6231 20.9493L6.32752 16.3317C6.1553 16.1811 6.05305 16.0142 6.02076 15.8312C5.98847 15.6483 5.99385 15.4707 6.0369 15.2985C6.07996 15.1262 6.17683 14.9809 6.32752 14.8625C6.47821 14.7441 6.66118 14.6742 6.87645 14.6526L13.8835 14.0391L16.5959 7.58104C16.682 7.3873 16.8111 7.24199 16.9834 7.14512C17.1556 7.04825 17.3278 6.99982 17.5 6.99982C17.6722 6.99982 17.8444 7.04825 18.0166 7.14512C18.1889 7.24199 18.318 7.3873 18.4041 7.58104L21.1165 14.0391L28.1235 14.6526C28.3388 14.6742 28.5218 14.7441 28.6725 14.8625C28.8232 14.9809 28.92 15.1262 28.9631 15.2985C29.0061 15.4707 29.0115 15.6483 28.9792 15.8312C28.947 16.0142 28.8447 16.1811 28.6725 16.3317L23.3769 20.9493L24.9591 27.7948C25.0021 28.0101 24.986 28.2039 24.9106 28.3761C24.8353 28.5483 24.7223 28.6882 24.5716 28.7958C24.4209 28.9035 24.2487 28.9627 24.055 28.9734C23.8612 28.9842 23.6782 28.9358 23.506 28.8281L17.5 25.2116Z" fill="currentColor"/>
</svg>
