<svg width="36" height="36" viewBox="0 0 36 36" fill="none" xmlns="http://www.w3.org/2000/svg">
<path d="M15.511 25.0957C17.2332 25.0957 18.8473 24.6281 20.2371 23.816L25.1733 28.7572C25.6274 29.2118 26.2315 29.4626 26.874 29.463C26.8745 29.463 26.8749 29.463 26.8749 29.463C27.5174 29.463 28.1219 29.2127 28.5753 28.7585C29.0303 28.3043 29.281 27.7002 29.2814 27.0577C29.2819 26.4147 29.0315 25.8102 28.5769 25.3556L23.6382 20.4115C24.4466 19.0242 24.912 17.4134 24.912 15.6947C24.912 10.5107 20.695 6.29321 15.511 6.29321C10.327 6.29321 6.11 10.5107 6.11 15.6947C6.11 20.8782 10.327 25.0957 15.511 25.0957ZM27.3852 26.5466C27.5216 26.6826 27.597 26.8639 27.5966 27.0568C27.5966 27.2494 27.5212 27.4307 27.3843 27.5671C27.2487 27.7032 27.0674 27.7781 26.8749 27.7781C26.6823 27.7781 26.5011 27.7027 26.365 27.5663L21.6277 22.8247C21.9931 22.5108 22.3343 22.1696 22.6478 21.8038L27.3852 26.5466ZM15.511 7.97852C19.7657 7.97852 23.2276 11.44 23.2276 15.6951C23.2276 17.3402 22.7081 18.8656 21.8269 20.1197L21.3958 20.5505L21.4548 20.6099C21.1475 20.9812 20.8055 21.3228 20.4351 21.6305L20.3752 21.5706L19.9344 22.0114C18.6807 22.8921 17.1557 23.4108 15.511 23.4108C11.2563 23.4108 7.79446 19.9494 7.79446 15.6947C7.79446 11.4395 11.2563 7.97852 15.511 7.97852Z" fill="#737373"/>
<path d="M15.511 21.7867C15.976 21.7867 16.3536 21.4099 16.3536 20.9444C16.3536 20.4789 15.9765 20.1018 15.511 20.1018C13.0806 20.1018 11.1035 18.1243 11.1035 15.6947C11.1035 15.2292 10.7267 14.8521 10.2608 14.8521C9.79576 14.8521 9.4186 15.2288 9.4186 15.6947C9.4186 19.054 12.1517 21.7867 15.511 21.7867Z" fill="#737373"/>
</svg>
