<svg width="24" height="19" viewBox="0 0 24 19" fill="none" xmlns="http://www.w3.org/2000/svg">
<path d="M4.18057 18.8569L4.13935 18.8868L4.0644 18.9243L3.98946 18.9468L3.92575 18.9655C3.82926 18.9847 3.72995 18.9847 3.63346 18.9655L3.56975 18.9468L3.4948 18.9243L3.38988 18.8868L3.33367 18.8569C3.29191 18.8296 3.25297 18.7982 3.2175 18.7632L0.219618 15.7653C0.030244 15.5759 -0.0437678 15.2997 0.025557 15.041C0.0948818 14.7821 0.296974 14.58 0.555823 14.5107C0.814525 14.4414 1.09075 14.5154 1.28015 14.7048L3.01518 16.4248V0.749459C3.01518 0.481657 3.15799 0.234337 3.38994 0.100374C3.62187 -0.0334581 3.90746 -0.0334581 4.13941 0.100374C4.37134 0.234344 4.51416 0.481671 4.51416 0.749459V16.4248L6.23419 14.7048C6.42357 14.5154 6.69981 14.4414 6.95852 14.5107C7.21735 14.58 7.41944 14.7821 7.48878 15.041C7.55811 15.2997 7.4841 15.5759 7.29472 15.7653L4.29684 18.7632C4.26137 18.7982 4.22242 18.8296 4.18067 18.8569H4.18057Z" fill="#003932"/>
<path d="M14.2569 15.2368H11.259C10.9912 15.2368 10.7439 15.3796 10.6099 15.6116C10.4761 15.8435 10.4761 16.1291 10.6099 16.361C10.7439 16.593 10.9912 16.7358 11.259 16.7358H14.2569C14.5247 16.7358 14.772 16.593 14.906 16.361C15.0398 16.1291 15.0398 15.8435 14.906 15.6116C14.772 15.3796 14.5247 15.2368 14.2569 15.2368Z" fill="#003932"/>
<path d="M17.2548 10.74H11.259C10.9912 10.74 10.7439 10.8828 10.6099 11.1147C10.4761 11.3467 10.4761 11.6323 10.6099 11.8642C10.7439 12.0961 10.9912 12.239 11.259 12.239H17.2548C17.5226 12.239 17.7699 12.0962 17.9039 11.8642C18.0377 11.6323 18.0377 11.3467 17.9039 11.1147C17.7699 10.8828 17.5226 10.74 17.2548 10.74Z" fill="#003932"/>
<path d="M20.2527 6.24316H11.259C10.9912 6.24316 10.7439 6.38597 10.6099 6.61792C10.4761 6.84985 10.4761 7.13544 10.6099 7.36739C10.7439 7.59932 10.9912 7.74214 11.259 7.74214H20.2527C20.5205 7.74214 20.7678 7.59934 20.9017 7.36739C21.0356 7.13545 21.0356 6.84987 20.9017 6.61792C20.7678 6.38598 20.5205 6.24316 20.2527 6.24316Z" fill="#003932"/>
<path d="M23.2505 1.74634H11.259C10.9912 1.74634 10.7439 1.88914 10.6099 2.12109C10.4761 2.35302 10.4761 2.63861 10.6099 2.87056C10.7439 3.10249 10.9912 3.24531 11.259 3.24531H23.2505C23.5184 3.24531 23.7657 3.10251 23.8996 2.87056C24.0335 2.63863 24.0335 2.35304 23.8996 2.12109C23.7657 1.88916 23.5183 1.74634 23.2505 1.74634Z" fill="#003932"/>
</svg>
