<svg width="32" height="33" viewBox="0 0 32 33" fill="none" xmlns="http://www.w3.org/2000/svg">
<path d="M15.8385 6.30542C10.0852 6.30542 5.40466 10.9864 5.40466 16.7393C5.40466 22.4926 10.0852 27.1728 15.8385 27.1728C21.5918 27.1728 26.272 22.4926 26.272 16.7393C26.272 10.9864 21.5918 6.30542 15.8385 6.30542ZM15.8385 25.6751C10.9113 25.6751 6.90234 21.6665 6.90234 16.7389C6.90234 11.8113 10.9109 7.80272 15.8385 7.80272C20.7662 7.80272 24.7747 11.8113 24.7747 16.7389C24.7747 21.6665 20.7658 25.6751 15.8385 25.6751Z" fill="white"/>
<path d="M21.2502 15.9878H16.5875V11.3251C16.5875 10.9117 16.2522 10.5764 15.8385 10.5764C15.4247 10.5764 15.0895 10.9113 15.0895 11.3251V15.9878H10.4268C10.0134 15.9878 9.67773 16.323 9.67773 16.7372C9.67773 17.1506 10.013 17.4858 10.4268 17.4858H15.0895V22.1485C15.0895 22.5623 15.4243 22.8979 15.8385 22.8979C16.2519 22.8979 16.5875 22.5626 16.5875 22.1485V17.4858H21.2502C21.6636 17.4858 21.9992 17.1509 21.9992 16.7372C21.9988 16.3234 21.6636 15.9878 21.2502 15.9878Z" fill="white"/>
</svg>
