<svg width="36" height="36" viewBox="0 0 36 36" fill="none" xmlns="http://www.w3.org/2000/svg">
<path d="M25.5586 14.8776C26.4653 14.0852 27.0413 12.924 27.0413 11.628C27.0413 9.24611 25.1035 7.30839 22.7217 7.30839C20.3402 7.30839 18.4021 9.24611 18.4021 11.628C18.4021 12.9256 18.9802 14.0885 19.889 14.881C19.1715 15.2058 18.5151 15.6436 17.9513 16.1807C17.9328 16.1803 17.9148 16.1778 17.896 16.1778C17.8918 16.1778 17.8881 16.1782 17.8843 16.1782C17.3213 15.6424 16.6653 15.205 15.9487 14.8801C16.8575 14.0877 17.4355 12.9248 17.4355 11.6271C17.4355 9.24528 15.4974 7.30756 13.116 7.30756C10.7345 7.30756 8.79638 9.24528 8.79638 11.6271C8.79638 12.9231 9.3728 14.0843 10.2791 14.8768C7.87127 15.963 6.18848 18.3817 6.18848 21.1902C6.18848 21.6552 6.56564 22.0328 7.03113 22.0328C7.49662 22.0328 7.87378 21.6556 7.87378 21.1902C7.87378 18.2997 10.2251 15.948 13.116 15.948C14.1365 15.948 15.0868 16.2456 15.8934 16.7521C14.8096 17.4248 14.0838 18.6229 14.0838 19.99C14.0838 21.1081 14.5706 22.1119 15.3396 22.8102C13.707 23.7139 12.5986 25.4528 12.5986 27.4475C12.5986 27.9125 12.9757 28.2897 13.4412 28.2897C13.9067 28.2897 14.2839 27.913 14.2839 27.4475C14.2839 25.4549 15.9043 23.8345 17.8968 23.8345C19.889 23.8345 21.5094 25.4549 21.5094 27.4475C21.5094 27.9125 21.8866 28.2897 22.3521 28.2897C22.8175 28.2897 23.1947 27.913 23.1947 27.4475C23.1947 25.4532 22.0862 23.7139 20.4537 22.8102C21.2227 22.1123 21.7095 21.1081 21.7095 19.99C21.7095 18.6321 20.9937 17.4411 19.9216 16.7655C19.9221 16.7655 19.9225 16.7659 19.9229 16.7659C20.7342 16.2506 21.6928 15.9476 22.7229 15.9476C25.6138 15.9476 27.9655 18.2993 27.9655 21.1897C27.9655 21.6548 28.3427 22.0324 28.8082 22.0324C29.2737 22.0324 29.6508 21.6552 29.6508 21.1897C29.6496 18.3826 27.9664 15.9643 25.5586 14.8776ZM22.7217 8.99328C24.1747 8.99328 25.3564 10.175 25.3564 11.628C25.3564 13.081 24.1747 14.2627 22.7217 14.2627C21.2691 14.2627 20.087 13.081 20.087 11.628C20.087 10.175 21.2691 8.99328 22.7217 8.99328ZM13.1155 8.99328C14.5685 8.99328 15.7502 10.175 15.7502 11.628C15.7502 13.081 14.5685 14.2627 13.1155 14.2627C11.6626 14.2627 10.4808 13.081 10.4808 11.628C10.4808 10.175 11.6626 8.99328 13.1155 8.99328ZM17.896 22.1186C16.7227 22.1186 15.7682 21.1642 15.7682 19.9909C15.7682 18.8175 16.7227 17.8631 17.896 17.8631C19.0694 17.8631 20.0234 18.8175 20.0234 19.9909C20.0234 21.1642 19.0689 22.1186 17.896 22.1186Z" fill="currentColor"/>
</svg>
