<svg width="130" height="24" viewBox="0 0 130 24" fill="none" xmlns="http://www.w3.org/2000/svg">
<path d="M91.8536 6.73839C95.5911 6.73839 98.6202 3.72169 98.6202 0C94.8832 0 91.8536 3.0167 91.8536 6.73839Z" fill="#003932"/>
<path d="M91.8536 6.7384V22.624H96.166V11.0331C96.166 8.6612 94.2353 6.7384 91.8536 6.7384Z" fill="#003932"/>
<path d="M59.1734 15.9726C59.1734 17.8135 58.0709 19.1046 56.158 19.1046C54.148 19.1046 53.2401 17.684 53.2401 15.9084V6.7384H48.9277V16.7802C48.9277 20.2349 51.1327 23.0443 54.991 23.0443C56.8877 23.0443 58.7971 22.004 59.4968 20.3826C60.1423 21.9443 61.6845 23.0443 63.4857 23.0443V6.7384H59.1734V15.9726Z" fill="#003932"/>
<path d="M42.2404 9.68636C41.7132 7.9082 40.0618 6.60999 38.1052 6.60999V22.624H42.4176V14.9743C42.5628 12.3035 44.1634 11.1768 46.3978 11.1768H46.897V6.73844H46.375C44.4194 6.73844 42.769 7.94259 42.2404 9.68636Z" fill="#003932"/>
<path d="M82.2666 10.9299C86.2337 9.24329 88.759 5.80481 88.9555 0H84.1537C83.7149 5.52109 80.5832 8.82404 75.5391 9.09005V0H71.1171V22.624H75.5391V13.2421C80.9722 13.3235 84.3558 16.7595 84.8174 22.624H89.409C89.2049 16.2856 86.4937 12.6282 82.2666 10.9299Z" fill="#003932"/>
<path d="M125.267 13.0024L122.997 12.5179C122.121 12.3566 121.538 11.8726 121.538 11.0973C121.538 10.1936 122.446 9.51538 123.58 9.51538C125.3 9.51538 126.002 10.587 126.181 11.4958H129.877C129.877 9.25442 128.087 6.25391 123.548 6.25391C120.111 6.25391 117.582 8.61113 117.582 11.4523C117.582 13.6806 118.976 15.5205 122.056 16.1992L124.164 16.6831C125.396 16.9416 125.882 17.5227 125.882 18.2327C125.882 19.0727 125.202 19.8151 123.775 19.8151C122.004 19.8151 121.067 18.7926 120.883 17.6208H117.123C117.123 19.8961 119.009 23.1085 123.807 23.1085C127.99 23.1085 130 20.461 130 17.8777C130 15.5528 128.412 13.6482 125.267 13.0024Z" fill="#003932"/>
<path d="M27.4945 19.2017C25.3871 19.2017 23.4416 17.6516 23.4416 14.6814C23.4416 11.6784 25.3871 10.1612 27.4945 10.1612C29.6019 10.1612 31.5473 11.6784 31.5473 14.6814C31.5473 17.684 29.6019 19.2017 27.4945 19.2017ZM27.4945 6.25391C22.7282 6.25391 19.1298 9.77381 19.1298 14.6814C19.1298 19.5567 22.7282 23.1085 27.4945 23.1085C32.2603 23.1085 35.8597 19.5567 35.8597 14.6814C35.8597 9.77381 32.2603 6.25391 27.4945 6.25391Z" fill="#003932"/>
<path d="M102.756 14.6491C102.756 11.8079 104.507 10.1936 106.712 10.1936C108.917 10.1936 110.635 11.7755 110.635 14.6167C110.635 17.4903 108.917 19.1693 106.712 19.1693C104.442 19.1693 102.756 17.4903 102.756 14.6491ZM114.818 0H110.57V8.32083C109.951 7.38927 108.467 6.351 106.064 6.351C101.557 6.351 98.412 9.99987 98.412 14.6491C98.412 19.4601 101.654 23.0119 106.193 23.0124C108.153 23.0124 110.127 21.9018 110.765 20.1874C111.368 21.835 112.955 23.0124 114.818 23.0124V0Z" fill="#003932"/>
<path d="M11.1495 10.9299C15.1166 9.24329 17.6419 5.80481 17.8384 0H13.0366C12.5978 5.52059 9.46664 8.82404 4.42203 9.09005V0H0V22.624H4.42203V13.2421C9.85512 13.3235 13.2387 16.7595 13.7008 22.624H18.2919C18.0878 16.2856 15.3766 12.6282 11.1495 10.9299Z" fill="#003932"/>
</svg>
