<svg width="36" height="36" viewBox="0 0 36 36" fill="none" xmlns="http://www.w3.org/2000/svg">
<path d="M17.5521 29.3245C23.6152 29.3245 28.5472 24.9484 28.5472 19.569V16.3817C28.5472 16.3415 28.5438 16.3026 28.5384 16.2641C28.5426 16.1569 28.5472 16.0502 28.5472 15.9422C28.5472 10.5627 23.6156 6.18658 17.5521 6.18658C11.4899 6.18658 6.55786 10.5627 6.55786 15.9422C6.55786 16.0502 6.56288 16.1569 6.56665 16.2641C6.56079 16.3026 6.55786 16.3419 6.55786 16.3817V19.569C6.55786 24.9484 11.4894 29.3245 17.5521 29.3245ZM17.5521 7.87189C22.6859 7.87189 26.8619 11.492 26.8619 15.9422C26.8619 20.3919 22.6854 24.0124 17.5521 24.0124C12.4192 24.0124 8.24233 20.3919 8.24233 15.9422C8.24191 11.492 12.4192 7.87189 17.5521 7.87189ZM17.5521 25.6973C21.2974 25.6973 24.6102 24.0263 26.596 21.4811C25.6027 25.0112 21.9261 27.6401 17.5521 27.6401C13.1789 27.6401 9.50233 25.0112 8.50856 21.4811C10.4944 24.0263 13.8064 25.6973 17.5521 25.6973Z" fill="currentColor"/>
<path d="M14.7893 20.8407H20.0808C20.5061 20.8407 20.8511 20.4949 20.8511 20.07V20.0441C20.8511 19.6192 20.5061 19.2734 20.0808 19.2734H16.4557C16.822 18.777 17.154 18.0699 17.154 17.1373C17.154 17.0125 17.1456 16.8983 17.1334 16.7911H18.6425C19.0678 16.7911 19.4136 16.4453 19.4136 16.0204C19.4136 15.5956 19.0678 15.2502 18.6425 15.2502H16.7341C16.6998 15.1631 16.6646 15.0786 16.6294 14.9957C16.4415 14.5436 16.2778 14.1535 16.2778 13.6629C16.2778 12.7386 16.8601 12.1412 17.7609 12.1412C18.483 12.1412 19.0264 12.5736 19.1796 13.2702C19.2566 13.6176 19.5735 13.8696 19.9343 13.8696C19.99 13.8696 20.0448 13.8634 20.098 13.8516L20.1821 13.8328C20.5861 13.7428 20.8511 13.3418 20.7724 12.9391C20.4911 11.5024 19.3039 10.574 17.748 10.574C15.9061 10.574 14.6197 11.8336 14.6197 13.6369C14.6197 14.256 14.7809 14.7805 14.9621 15.2502H14.9065C14.4812 15.2502 14.1362 15.5956 14.1362 16.0204C14.1362 16.4453 14.4812 16.7911 14.9065 16.7911H15.4657C15.4854 16.9121 15.4942 17.033 15.4942 17.1641C15.4942 17.9506 15.0852 18.6995 14.3715 19.2198C14.1509 19.3806 14.0182 19.6418 14.0182 19.9176V20.07C14.019 20.4949 14.3648 20.8407 14.7893 20.8407Z" fill="currentColor"/>
</svg>
