<svg width="24" height="19" viewBox="0 0 24 19" fill="none" xmlns="http://www.w3.org/2000/svg">
<path d="M4.18057 0.143137L4.13935 0.11316L4.06441 0.0756839L3.98946 0.0532001L3.92575 0.0344623C3.82926 0.015324 3.72996 0.015324 3.63346 0.0344623L3.56976 0.0532001L3.49481 0.0756839L3.38988 0.113159L3.33367 0.143137C3.29191 0.170441 3.25297 0.201758 3.21751 0.236824L0.219621 3.23471C0.0302473 3.42408 -0.0437645 3.70032 0.0255603 3.95903C0.094885 4.21787 0.296977 4.41995 0.555826 4.4893C0.814528 4.55862 1.09075 4.48461 1.28015 4.29523L3.01519 2.57521L3.01519 18.2505C3.01519 18.5183 3.15799 18.7657 3.38994 18.8996C3.62187 19.0335 3.90746 19.0335 4.13941 18.8996C4.37134 18.7657 4.51416 18.5183 4.51416 18.2505L4.51416 2.57521L6.2342 4.29524C6.42357 4.48461 6.69981 4.55862 6.95852 4.4893C7.21735 4.41997 7.41944 4.21788 7.48879 3.95903C7.55811 3.70033 7.4841 3.42411 7.29472 3.23471L4.29684 0.236824C4.26137 0.201762 4.22243 0.170441 4.18067 0.143137L4.18057 0.143137Z" fill="#003932"/>
<path d="M14.2569 3.76318L11.259 3.76318C10.9912 3.76318 10.7439 3.62038 10.6099 3.38843C10.4761 3.1565 10.4761 2.87091 10.6099 2.63896C10.7439 2.40703 10.9912 2.26421 11.259 2.26421L14.2569 2.26421C14.5247 2.26421 14.772 2.40701 14.906 2.63896C15.0398 2.87089 15.0398 3.15648 14.906 3.38843C14.772 3.62037 14.5247 3.76318 14.2569 3.76318Z" fill="#003932"/>
<path d="M17.2548 8.26001L11.259 8.26001C10.9912 8.26001 10.7439 8.11721 10.6099 7.88526C10.4761 7.65332 10.4761 7.36774 10.6099 7.13579C10.7439 6.90385 10.9912 6.76103 11.259 6.76103L17.2548 6.76103C17.5226 6.76103 17.7699 6.90384 17.9039 7.13579C18.0377 7.36772 18.0377 7.65331 17.9039 7.88526C17.7699 8.11719 17.5226 8.26001 17.2548 8.26001Z" fill="#003932"/>
<path d="M20.2527 12.7568L11.259 12.7568C10.9912 12.7568 10.7439 12.614 10.6099 12.3821C10.4761 12.1501 10.4761 11.8646 10.6099 11.6326C10.7439 11.4007 10.9912 11.2579 11.259 11.2579L20.2527 11.2579C20.5205 11.2579 20.7678 11.4007 20.9017 11.6326C21.0356 11.8645 21.0356 12.1501 20.9017 12.3821C20.7678 12.614 20.5204 12.7568 20.2527 12.7568Z" fill="#003932"/>
<path d="M11.259 17.2537L23.2506 17.2537C23.5184 17.2537 23.7657 17.1109 23.8997 16.8789C24.0335 16.647 24.0335 16.3614 23.8997 16.1294C23.7657 15.8975 23.5184 15.7547 23.2506 15.7547L11.259 15.7547C10.9912 15.7547 10.7439 15.8975 10.6099 16.1294C10.4761 16.3614 10.4761 16.647 10.6099 16.8789C10.7439 17.1108 10.9912 17.2537 11.259 17.2537Z" fill="#003932"/>
</svg>
